<svg width="26" height="26" viewBox="0 0 26 26" fill="none" xmlns="http://www.w3.org/2000/svg">
    <path d="M13.0001 2.16675C10.8575 2.16675 8.76294 2.80211 6.98141 3.99249C5.19988 5.18288 3.81134 6.87481 2.99139 8.85434C2.17144 10.8339 1.95691 13.0121 2.37491 15.1136C2.79292 17.215 3.82469 19.1453 5.33976 20.6604C6.85483 22.1755 8.78515 23.2073 10.8866 23.6253C12.9881 24.0433 15.1663 23.8287 17.1458 23.0088C19.1254 22.1888 20.8173 20.8003 22.0077 19.0188C23.1981 17.2372 23.8334 15.1427 23.8334 13.0001C23.8334 11.5774 23.5532 10.1687 23.0088 8.85434C22.4644 7.53998 21.6664 6.34573 20.6604 5.33976C19.6544 4.33379 18.4602 3.53581 17.1458 2.99139C15.8315 2.44696 14.4227 2.16675 13.0001 2.16675ZM19.1491 11.0902L12.6491 17.0485C12.4433 17.2372 12.1726 17.3392 11.8934 17.3331C11.6143 17.3271 11.3483 17.2134 11.1508 17.016L7.90084 13.766C7.79737 13.6661 7.71484 13.5465 7.65806 13.4144C7.60128 13.2822 7.5714 13.14 7.57015 12.9962C7.5689 12.8523 7.59631 12.7097 7.65078 12.5765C7.70525 12.4434 7.78569 12.3225 7.88741 12.2207C7.98912 12.119 8.11008 12.0386 8.24322 11.9841C8.37636 11.9296 8.51901 11.9022 8.66285 11.9035C8.8067 11.9047 8.94885 11.9346 9.08102 11.9914C9.21319 12.0482 9.33273 12.1307 9.43267 12.2342L11.9493 14.7507L17.6844 9.49333C17.8962 9.2991 18.1764 9.19695 18.4635 9.20934C18.7506 9.22174 19.0209 9.34766 19.2152 9.55942C19.4094 9.77117 19.5115 10.0514 19.4992 10.3385C19.4868 10.6255 19.3608 10.8959 19.1491 11.0902Z" fill="#25BA00"/>
</svg>