<svg width="24" height="25" viewBox="0 0 24 25" fill="none" xmlns="http://www.w3.org/2000/svg">
    <path d="M12 22.5C17.5228 22.5 22 18.0228 22 12.5C22 6.97715 17.5228 2.5 12 2.5C6.47715 2.5 2 6.97715 2 12.5C2 18.0228 6.47715 22.5 12 22.5Z" stroke="#111111" stroke-opacity="0.5" stroke-width="2" stroke-linecap="round" stroke-linejoin="round"/>
    <path d="M9.08997 9.50008C9.32507 8.83175 9.78912 8.26819 10.3999 7.90921C11.0107 7.55024 11.7289 7.41902 12.4271 7.53879C13.1254 7.65857 13.7588 8.02161 14.215 8.56361C14.6713 9.10561 14.921 9.7916 14.92 10.5001C14.92 12.5001 11.92 13.5001 11.92 13.5001" stroke="#111111" stroke-opacity="0.5" stroke-width="2" stroke-linecap="round" stroke-linejoin="round"/>
    <path d="M12 17.5H12.01" stroke="#111111" stroke-opacity="0.5" stroke-width="2" stroke-linecap="round" stroke-linejoin="round"/>
</svg>