<svg width="156" height="115" viewBox="0 0 156 115" fill="none" xmlns="http://www.w3.org/2000/svg">
    <mask id="mask0_11_585" style="mask-type:alpha" maskUnits="userSpaceOnUse" x="0" y="0" width="156" height="115">
        <rect width="156" height="115" rx="20" fill="white"/>
    </mask>
    <g mask="url(#mask0_11_585)">
        <g opacity="0.06">
            <path d="M177.573 41.8243C177.68 40.0564 177.319 38.2916 176.526 36.7081C175.732 35.1246 174.535 33.7786 173.055 32.8059C167.575 29.4818 143.822 21.9857 143.822 21.9857C143.822 21.9857 120.07 14.4896 113.631 14.2036C111.861 14.1505 110.108 14.5655 108.549 15.4067C106.99 16.248 105.681 17.4856 104.754 18.9946C101.766 24.6779 99.3047 30.6234 97.4024 36.7564C95.4166 42.9137 94.0042 49.2413 93.1832 55.6586C93.1343 57.3889 93.5324 59.1025 94.3392 60.6339C95.146 62.1653 96.3341 63.4628 97.7888 64.4009C103.226 67.863 126.978 75.3591 126.978 75.3591C126.978 75.3591 150.73 82.8552 157.169 83.1412C158.94 83.1943 160.693 82.7793 162.251 81.9381C163.81 81.0969 165.119 79.8592 166.046 78.3502C169.012 72.7096 171.458 66.8107 173.354 60.7265C175.34 54.5693 176.752 48.2416 177.573 41.8243Z" stroke="black" stroke-width="7" stroke-linecap="round" stroke-linejoin="round"/>
            <path d="M124.048 57.5791L147.462 52.5549L131.173 35.0007L124.048 57.5791Z" stroke="black" stroke-width="7" stroke-linecap="round" stroke-linejoin="round"/>
        </g>
    </g>
</svg>